<?xml version="1.0" encoding="iso-8859-1"?>
<!-- Generator: Adobe Illustrator 19.0.0, SVG Export Plug-In . SVG Version: 6.00 Build 0)  -->
<svg version="1.1" id="Capa_1" xmlns="http://www.w3.org/2000/svg" xmlns:xlink="http://www.w3.org/1999/xlink" x="0px" y="0px"
	 viewBox="0 0 512 512" style="enable-background:new 0 0 512 512;" xml:space="preserve">
<path style="fill:#293C7D;" d="M187.689,512c-11.63,0-21.066-9.437-21.066-21.066V21.066C166.623,9.437,176.059,0,187.689,0
	s21.066,9.437,21.066,21.066v469.867C208.755,502.563,199.319,512,187.689,512z"/>
<g>
	<path style="fill:#4899D2;" d="M50.942,512c-11.63,0-21.066-9.437-21.066-21.066V231.361c-1.257-11.568,7.096-21.966,18.664-23.222
		c11.568-1.257,21.966,7.096,23.222,18.664c0.16,1.515,0.16,3.043,0,4.546v259.573C71.762,502.465,62.486,511.864,50.942,512z"/>
	<path style="fill:#4899D2;" d="M324.436,512c-11.63,0-21.066-9.437-21.066-21.066V126.275c0-11.63,9.437-21.066,21.066-21.066
		s21.066,9.437,21.066,21.066v364.658C345.502,502.563,336.066,512,324.436,512z"/>
</g>
<path style="fill:#293C7D;" d="M461.183,512c-11.63,0-21.066-9.437-21.066-21.066V336.693c-0.012-11.63,9.412-21.079,21.042-21.091
	c11.63-0.012,21.079,9.412,21.091,21.042c0,0.012,0,0.025,0,0.049v154.241C482.249,502.563,472.812,512,461.183,512z"/>
<g>
</g>
<g>
</g>
<g>
</g>
<g>
</g>
<g>
</g>
<g>
</g>
<g>
</g>
<g>
</g>
<g>
</g>
<g>
</g>
<g>
</g>
<g>
</g>
<g>
</g>
<g>
</g>
<g>
</g>
</svg>
