<?xml version="1.0" encoding="iso-8859-1"?>
<!-- Generator: Adobe Illustrator 19.0.0, SVG Export Plug-In . SVG Version: 6.00 Build 0)  -->
<svg version="1.1" id="Capa_1" xmlns="http://www.w3.org/2000/svg" xmlns:xlink="http://www.w3.org/1999/xlink" x="0px" y="0px"
	 viewBox="0 0 512 512" style="enable-background:new 0 0 512 512;" xml:space="preserve">
<path style="fill:#4899D2;" d="M392.567,345.996l-116.849-84.603V169.15c0-10.606-8.606-19.213-19.213-19.213
	c-10.606,0-19.213,8.606-19.213,19.213v93.142l-99.883,84.603c-8.123,6.82-9.179,18.943-2.359,27.066
	c6.82,8.123,18.943,9.179,27.066,2.359c0.045-0.034,0.079-0.067,0.124-0.101l95.277-80.671l112.355,81.569
	c8.314,6.595,20.404,5.191,26.988-3.123c6.595-8.314,5.191-20.404-3.123-26.988c-0.449-0.36-0.921-0.697-1.393-1.011
	L392.567,345.996L392.567,345.996z"/>
<g>
	<path style="fill:#293C7D;" d="M251.899,188.363c-46.908,0-84.94-38.032-84.94-84.94s38.032-84.94,84.94-84.94
		s84.94,38.032,84.94,84.94l0,0C336.772,150.308,298.785,188.295,251.899,188.363z M251.899,56.908
		c-25.684,0-46.515,20.831-46.515,46.515s20.831,46.515,46.515,46.515s46.515-20.831,46.515-46.515
		C298.358,77.761,277.561,56.964,251.899,56.908z"/>
	<path style="fill:#293C7D;" d="M84.94,493.518c-46.908,0-84.94-38.032-84.94-84.94s38.032-84.94,84.94-84.94
		s84.94,38.032,84.94,84.94C169.813,455.463,131.826,493.45,84.94,493.518z M84.94,362.063c-25.684,0-46.515,20.831-46.515,46.515
		c0,25.684,20.831,46.515,46.515,46.515s46.515-20.831,46.515-46.515l0,0c-0.124-25.617-20.898-46.346-46.515-46.402V362.063z"/>
	<path style="fill:#293C7D;" d="M427.06,493.518c-46.908,0-84.94-38.032-84.94-84.94s38.032-84.94,84.94-84.94
		S512,361.67,512,408.578C511.933,455.463,473.945,493.45,427.06,493.518z M427.06,362.063c-25.684,0-46.515,20.831-46.515,46.515
		c0,25.684,20.831,46.515,46.515,46.515s46.515-20.831,46.515-46.515l0,0c-0.124-25.617-20.898-46.346-46.515-46.402V362.063z"/>
</g>
<g>
</g>
<g>
</g>
<g>
</g>
<g>
</g>
<g>
</g>
<g>
</g>
<g>
</g>
<g>
</g>
<g>
</g>
<g>
</g>
<g>
</g>
<g>
</g>
<g>
</g>
<g>
</g>
<g>
</g>
</svg>
